<?xml version="1.0" encoding="UTF-8"?>
<svg version="1.1" xmlns="http://www.w3.org/2000/svg" width="525" height="529">
<path d="M0 0 C173.25 0 346.5 0 525 0 C525 174.57 525 349.14 525 529 C351.75 529 178.5 529 0 529 C0 354.43 0 179.86 0 0 Z " fill="#FDFDFD" transform="translate(0,0)"/>
<path d="M0 0 C4.18912407 3.36314595 8.17802413 6.92711308 12.12646484 10.56738281 C12.92439453 11.2828125 13.72232422 11.99824219 14.54443359 12.73535156 C44.69487877 41.12839374 60.59820089 83.51050546 66.66426086 123.52729797 C66.96435468 125.5011249 67.27292961 127.47368791 67.59144592 129.44462585 C69.23750149 140.1102246 70.03207697 150.79647632 70.73193359 161.55957031 C70.79736044 162.55597408 70.86278728 163.55237785 70.93019676 164.57897568 C72.32495463 186.28671559 72.56224806 207.9394413 72.45267487 229.6849556 C72.43865949 232.7593642 72.43050749 235.83373939 72.42401123 238.90817261 C72.34329191 275.41803038 71.70591579 311.90122914 70.46233654 348.38959885 C70.2196162 355.52002529 70.01597082 362.65049568 69.84579468 369.7830658 C69.73635106 374.20947129 69.60406252 378.63495883 69.46478271 383.06051636 C69.4072572 385.01902769 69.35851264 386.97782292 69.31988525 388.9367981 C69.07788125 400.7336392 68.18437444 410.47622458 60.16259766 419.86621094 C57.21926852 422.32533773 54.83253101 421.85246483 51.12646484 421.56738281 C50.79646484 420.57738281 50.46646484 419.58738281 50.12646484 418.56738281 C48.14646484 418.89738281 46.16646484 419.22738281 44.12646484 419.56738281 C43.79646484 418.24738281 43.46646484 416.92738281 43.12646484 415.56738281 C41.80646484 415.23738281 40.48646484 414.90738281 39.12646484 414.56738281 C37.86780434 410.03620498 37.86780434 410.03620498 39.12646484 407.75488281 C40.68603764 404.34331732 39.98567619 401.09649251 39.12646484 397.56738281 C38.38365404 395.62464687 37.640624 393.68199358 36.89526367 391.74023438 C35.63051098 388.16567136 34.83911213 384.52405419 34.06396484 380.81738281 C33.90347656 380.11484375 33.74298828 379.41230469 33.57763672 378.68847656 C30.34189174 363.4323938 29.86435882 347.61592513 29.29302979 332.08074951 C28.95916785 292.1898162 28.95916785 292.1898162 20.00537109 253.79785156 C19.12646484 251.56738281 19.12646484 251.56738281 19.12646484 248.56738281 C18.46646484 248.56738281 17.80646484 248.56738281 17.12646484 248.56738281 C17.06653886 249.18254383 17.00661287 249.79770485 16.94487095 250.43150711 C16.52779227 254.66423573 16.09639478 258.89281877 15.59446716 263.11639404 C14.23613517 274.89334674 13.88780991 286.49400288 14.00670052 298.3421402 C14.03754922 301.49022232 14.05386326 304.6381116 14.0667572 307.78631592 C14.10596968 316.7206478 14.17152298 325.65474113 14.24291992 334.58886719 C14.28596071 340.09732009 14.3138456 345.60569653 14.33321953 351.1142807 C14.34367142 353.18882814 14.35993338 355.26335594 14.38252449 357.3378067 C14.61881346 379.0432522 12.96815636 399.3302144 -2.92431641 415.67675781 C-8.02364145 420.47838214 -8.02364145 420.47838214 -11.52197266 420.84472656 C-14.41668795 420.50332326 -14.8746023 419.56631567 -16.87353516 417.56738281 C-19.49924219 417.31668369 -19.49924219 417.31668369 -21.87353516 417.56738281 C-21.91478516 416.94863281 -21.95603516 416.32988281 -21.99853516 415.69238281 C-22.28728516 414.99113281 -22.57603516 414.28988281 -22.87353516 413.56738281 C-25.83614041 412.32980404 -25.83614041 412.32980404 -28.87353516 411.56738281 C-29.87353516 410.56738281 -29.87353516 410.56738281 -30.31103516 408.44238281 C-29.74182093 404.70183215 -28.05644127 403.26934833 -25.38134766 400.70410156 C-21.4663628 395.1561826 -21.5666699 387.96869623 -21.57275391 381.42675781 C-21.56415092 380.12678612 -21.56415092 380.12678612 -21.55537415 378.80055237 C-21.54310856 375.97263612 -21.54939239 373.14529749 -21.56103516 370.31738281 C-21.56526489 368.84729263 -21.56526489 368.84729263 -21.56958008 367.34750366 C-21.75986885 323.08427056 -29.13795419 280.17900915 -37.57299805 236.81811523 C-39.14137363 228.7189647 -40.52859624 220.63003405 -41.56103516 212.44238281 C-44.41897666 189.85528858 -49.18293094 165.10394047 -64.87353516 147.56738281 C-66.35853516 146.57738281 -66.35853516 146.57738281 -67.87353516 145.56738281 C-68.12353516 143.00488281 -68.12353516 143.00488281 -67.87353516 140.56738281 C-66.87353516 139.56738281 -66.87353516 139.56738281 -64.37353516 139.12988281 C-59.19693595 139.77695771 -55.96425706 142.46878678 -51.87353516 145.56738281 C-51.27412109 145.98890625 -50.67470703 146.41042969 -50.05712891 146.84472656 C-27.44042972 164.10898186 -21.72673339 199.49560687 -16.52587891 225.375 C-15.95293385 228.17882843 -15.34810318 230.97143586 -14.71728516 233.76269531 C-11.24818099 249.19764865 -9.38006347 264.83087422 -7.87353516 280.56738281 C-7.83615234 279.62121094 -7.79876953 278.67503906 -7.76025391 277.70019531 C-6.85241901 258.28496459 -5.0985748 231.74601088 6.31396484 215.44238281 C9.68315343 213.19625709 11.79165646 212.71101687 15.79833984 212.96972656 C24.14886431 215.11340147 29.83197178 224.71783282 34.12646484 231.56738281 C35.615697 234.15714387 37.01487013 236.78349802 38.37646484 239.44238281 C38.69357422 240.05331787 39.01068359 240.66425293 39.33740234 241.29370117 C41.41894165 245.52729411 42.87638471 249.82560681 44.24267578 254.34130859 C44.77438385 256.09183029 44.77438385 256.09183029 45.3168335 257.87771606 C45.58401184 258.76530609 45.85119019 259.65289612 46.12646484 260.56738281 C46.14983935 250.22132983 46.16750592 239.87528334 46.17827702 229.52920914 C46.18345173 224.72291366 46.19044847 219.9166365 46.2019043 215.11035156 C46.21292876 210.45485001 46.21878218 205.79936585 46.22134209 201.14385223 C46.22316169 199.38524858 46.22671274 197.62664567 46.2321949 195.86804962 C46.28201658 179.19241703 45.84866619 162.51574593 43.87646484 145.94238281 C43.74860596 144.8631958 43.62074707 143.78400879 43.48901367 142.67211914 C40.63239823 119.7844194 36.08360286 96.9011435 27.12646484 75.56738281 C26.83231689 74.86645508 26.53816895 74.16552734 26.23510742 73.44335938 C13.57552235 43.96046496 -6.26204067 24.61464483 -35.87353516 12.56738281 C-48.0171106 7.87964646 -60.39555342 3.94618819 -72.96044922 0.55712891 C-87.18109923 -3.314774 -87.18109923 -3.314774 -89.87353516 -7.43261719 C-90.31103516 -9.87011719 -90.31103516 -9.87011719 -89.87353516 -12.43261719 C-87.08110192 -15.8169948 -84.78981105 -17.08535307 -80.56103516 -18.12011719 C-79.65740234 -18.35085937 -78.75376953 -18.58160156 -77.82275391 -18.81933594 C-50.34155455 -24.53396945 -22.18192713 -16.96162997 0 0 Z " fill="#030303" transform="translate(447.87353515625,69.4326171875)"/>
<path d="M0 0 C4.28419437 1.40510555 6.38540495 4.92464956 8.49267578 8.70263672 C9.53757561 10.81438592 10.497159 12.9456835 11.4296875 15.109375 C11.77290039 15.89699219 12.11611328 16.68460938 12.46972656 17.49609375 C19.47663873 34.00155761 24.6386479 52.84027597 25.4296875 70.796875 C26.76 69.6521875 26.76 69.6521875 28.1171875 68.484375 C31.0852085 65.93692378 34.07280217 63.41364892 37.06591797 60.89575195 C42.57708075 56.25549095 47.99839864 51.54328502 53.30859375 46.671875 C55.28021177 44.92900824 57.30084655 43.34161219 59.4296875 41.796875 C60.0896875 42.126875 60.7496875 42.456875 61.4296875 42.796875 C54.60341758 50.95510003 46.99168913 58.32967184 39.4296875 65.796875 C44.67370804 63.25333759 49.71773475 60.6528383 54.6171875 57.484375 C58.87228112 54.85603123 61.48996429 54.15256328 66.4296875 54.796875 C66.4296875 55.456875 66.4296875 56.116875 66.4296875 56.796875 C65.01538086 57.90673828 65.01538086 57.90673828 63.01953125 59.1171875 C62.28331543 59.56666748 61.54709961 60.01614746 60.78857422 60.47924805 C59.9895166 60.95531494 59.19045898 61.43138184 58.3671875 61.921875 C57.56039551 62.40889893 56.75360352 62.89592285 55.92236328 63.39770508 C48.56456697 67.79982394 41.0515326 71.87353586 33.4296875 75.796875 C34.05536621 75.90757324 34.68104492 76.01827148 35.32568359 76.13232422 C38.15354519 76.63735581 40.97906736 77.15445625 43.8046875 77.671875 C44.78953125 77.84589844 45.774375 78.01992187 46.7890625 78.19921875 C47.73007813 78.37324219 48.67109375 78.54726562 49.640625 78.7265625 C50.50993652 78.88366699 51.37924805 79.04077148 52.27490234 79.20263672 C54.4296875 79.796875 54.4296875 79.796875 56.4296875 81.796875 C49.53673261 81.91436855 42.68450983 81.76988976 35.8046875 81.359375 C35.10601562 81.32013916 34.40734375 81.28090332 33.6875 81.24047852 C28.67419471 80.91912861 28.67419471 80.91912861 26.4296875 79.796875 C26.70232422 81.67439453 26.70232422 81.67439453 26.98046875 83.58984375 C29.81070975 103.4756109 32.18628268 123.45509637 33.18359375 143.5234375 C33.4751816 149.04076334 33.9562233 154.54269299 34.4296875 160.046875 C34.5129126 161.03671387 34.5961377 162.02655273 34.68188477 163.04638672 C34.76365967 163.9798291 34.84543457 164.91327148 34.9296875 165.875 C35.001875 166.70418945 35.0740625 167.53337891 35.1484375 168.38769531 C35.38735092 170.78426449 35.38735092 170.78426449 35.92626953 173.05151367 C36.63265662 176.90375559 36.80010354 180.73643877 36.984375 184.64453125 C37.02642059 185.51803726 37.06846619 186.39154327 37.11178589 187.29151917 C37.53623848 196.93724431 37.58050952 206.57904204 37.56005859 216.23266602 C37.5546976 219.22872996 37.56004571 222.22464366 37.56640625 225.22070312 C37.57016159 234.87776424 37.43575936 244.51280203 36.984375 254.16015625 C36.94563263 254.98913925 36.90689026 255.81812225 36.86697388 256.67222595 C36.49185206 263.88009353 35.71673939 271.03007303 34.90234375 278.19921875 C34.32330727 283.51932883 34.01705007 288.84757026 33.77148438 294.19238281 C33.57967961 298.13612355 33.07879502 301.90726173 32.4296875 305.796875 C32.23599713 308.46549792 32.06525972 311.12560009 31.9296875 313.796875 C31.56014812 321.07816939 31.56014812 321.07816939 30.92700195 324.56616211 C30.03541048 330.35822394 30.16512451 336.21284244 30.13452148 342.06176758 C30.12305933 343.58106848 30.10269976 345.10033097 30.07299805 346.61938477 C29.84294076 358.4217092 29.97522666 370.59529002 38.4296875 379.796875 C40.94748007 380.77405815 40.94748007 380.77405815 43.6171875 381.046875 C48.37651426 381.74370176 48.37651426 381.74370176 49.4296875 382.796875 C49.47032582 384.46304615 49.4724085 386.13075595 49.4296875 387.796875 C50.38875 388.1371875 50.38875 388.1371875 51.3671875 388.484375 C53.4296875 389.796875 53.4296875 389.796875 54.3046875 392.234375 C54.4296875 394.796875 54.4296875 394.796875 52.4296875 397.796875 C53.8528125 398.23 53.8528125 398.23 55.3046875 398.671875 C58.4296875 399.796875 58.4296875 399.796875 60.4296875 401.796875 C60.6171875 404.171875 60.6171875 404.171875 59.4296875 406.796875 C53.51027104 410.57147904 47.51018501 411.51275698 40.6171875 411.421875 C39.74425049 411.41349609 38.87131348 411.40511719 37.97192383 411.39648438 C28.51032123 411.06698891 21.24306897 408.03832246 14.5546875 401.234375 C3.02477867 386.35798044 1.81447752 367.75995876 1.8671875 349.671875 C1.86567688 348.8322522 1.86416626 347.99262939 1.86260986 347.12756348 C1.88457667 328.67458499 4.24814725 310.63402994 6.921875 292.40625 C7.43377795 288.87105479 7.93674176 285.33476329 8.4296875 281.796875 C8.59136917 280.64474014 8.59136917 280.64474014 8.75631714 279.46932983 C10.98972016 262.89649733 10.78479397 246.20030738 10.74713898 229.51207733 C10.74213201 227.08244953 10.74064488 224.65283806 10.73968506 222.22320557 C10.71877611 197.35026458 9.89141107 172.64352865 8.00950623 147.83540344 C7.35935818 139.18442911 6.93984873 130.52810887 6.54324341 121.86242676 C5.27077663 94.51447915 3.63772803 67.5447794 -2.5703125 40.796875 C-2.95625184 39.07071947 -3.34048575 37.34418136 -3.72265625 35.6171875 C-4.00238281 34.35648438 -4.28210938 33.09578125 -4.5703125 31.796875 C-5.2303125 31.796875 -5.8903125 31.796875 -6.5703125 31.796875 C-6.98990234 33.09625 -6.98990234 33.09625 -7.41796875 34.421875 C-8.50481165 37.60503521 -9.73367731 40.68496849 -11.0078125 43.796875 C-13.67070301 50.68123016 -15.25157046 57.54794075 -16.5703125 64.796875 C-16.76496094 65.84101563 -16.95960937 66.88515625 -17.16015625 67.9609375 C-18.83080218 77.39947729 -19.61276691 86.7394616 -19.74609375 96.31640625 C-19.758078 97.06959641 -19.77006226 97.82278656 -19.78240967 98.59880066 C-19.83108286 101.73084601 -19.87860828 104.8624769 -19.89624023 107.99487305 C-19.91174633 110.31100589 -19.95190377 112.62566589 -19.99609375 114.94140625 C-19.99418533 115.64151321 -19.99227692 116.34162018 -19.99031067 117.0629425 C-20.11458364 122.07252826 -21.42035698 124.94065463 -24.5703125 128.796875 C-28.41340014 131.35893342 -30.0043429 131.47054265 -34.5703125 130.796875 C-46.12759458 124.85643201 -50.74003848 108.25186039 -54.47949219 96.69067383 C-57.05350863 88.45364269 -59.34330315 80.13337902 -61.5703125 71.796875 C-61.72765673 77.96906021 -61.13781762 83.76481065 -60.1953125 89.859375 C-59.936599 91.57929179 -59.67881052 93.29934795 -59.421875 95.01953125 C-59.28547607 95.92985107 -59.14907715 96.8401709 -59.00854492 97.77807617 C-58.32602605 102.47966158 -57.70980475 107.18973097 -57.08789062 111.8996582 C-56.58157419 115.71207767 -56.06054791 119.52219827 -55.53515625 123.33203125 C-55.19270833 125.84114583 -54.85026042 128.35026042 -54.5078125 130.859375 C-54.33443359 132.10525391 -54.16105469 133.35113281 -53.98242188 134.63476562 C-53.81419922 135.87548828 -53.64597656 137.11621094 -53.47265625 138.39453125 C-53.24823853 140.02660522 -53.24823853 140.02660522 -53.01928711 141.69165039 C-51.78383507 152.09284303 -51.42047091 162.53134026 -51.32421875 172.99609375 C-51.29271932 175.50911862 -51.26088659 178.02213932 -51.22875977 180.53515625 C-51.21338165 181.83275879 -51.19800354 183.13036133 -51.18215942 184.46728516 C-50.86348002 210.94107012 -50.11910596 237.36365639 -48.5703125 263.796875 C-48.527995 264.53079468 -48.48567749 265.26471436 -48.44207764 266.02087402 C-48.16918571 270.73911872 -47.87720694 275.45571547 -47.5703125 280.171875 C-47.49949463 281.28240234 -47.42867676 282.39292969 -47.35571289 283.53710938 C-46.90241908 289.95968194 -46.11871608 296.26284743 -45.0703125 302.61572266 C-44.04403136 309.14523596 -43.41271095 315.43057905 -43.40234375 322.03125 C-43.39735115 323.17016693 -43.39735115 323.17016693 -43.39225769 324.33209229 C-43.3872291 325.92874554 -43.38484809 327.52540915 -43.38500977 329.12207031 C-43.38283062 331.52687485 -43.36465152 333.93121423 -43.34570312 336.3359375 C-43.28241795 353.43696116 -45.14888791 367.44778381 -56.5703125 380.796875 C-57.14007813 381.51101563 -57.70984375 382.22515625 -58.296875 382.9609375 C-64.21273735 390.17342722 -71.19154357 395.10857622 -80.68359375 396.1328125 C-90.64572562 396.25445025 -97.79390168 394.20048731 -105.26171875 387.45703125 C-107.37329579 384.77816485 -107.50393557 382.11572174 -107.5703125 378.796875 C-106.8484375 378.405 -106.1265625 378.013125 -105.3828125 377.609375 C-102.43713431 375.89093759 -102.43713431 375.89093759 -100.1953125 373.109375 C-96.81357225 370.13022288 -94.94671568 370.54915407 -90.5703125 370.796875 C-89.9103125 370.136875 -89.2503125 369.476875 -88.5703125 368.796875 C-86.1875 368.8203125 -86.1875 368.8203125 -83.4453125 369.171875 C-82.53523438 369.28273438 -81.62515625 369.39359375 -80.6875 369.5078125 C-79.98882812 369.60320312 -79.29015625 369.69859375 -78.5703125 369.796875 C-75.52226183 363.4900042 -73.81177685 357.05521832 -72.3828125 350.234375 C-72.21620117 349.44377686 -72.04958984 348.65317871 -71.87792969 347.83862305 C-68.78903209 332.52257484 -69.25886399 317.78204762 -71.28094482 302.36727905 C-73.22093309 287.22976459 -73.96917529 272.24115137 -73.9453125 256.984375 C-73.9467627 256.09867828 -73.94821289 255.21298157 -73.94970703 254.30044556 C-73.94785002 244.31564944 -73.51044598 234.46762809 -72.5703125 224.52734375 C-71.29758686 210.76700071 -71.1954437 197.02238211 -71.19970703 183.21630859 C-71.19986962 180.35667648 -71.18592941 177.49768483 -71.15869141 174.63818359 C-71.00055777 157.78727709 -71.67761638 141.54974989 -74.70849609 124.90576172 C-75.39192759 121.14786181 -75.77687529 117.63175818 -75.5703125 113.796875 C-80.77253694 118.36733025 -84.03175903 123.99763897 -87.6328125 129.859375 C-88.84791842 131.83248166 -90.06780826 133.80265198 -91.29296875 135.76953125 C-91.82672119 136.63843994 -92.36047363 137.50734863 -92.91040039 138.40258789 C-94.61010512 140.85427259 -96.31143314 142.84795412 -98.5703125 144.796875 C-100.8203125 144.546875 -100.8203125 144.546875 -102.5703125 143.796875 C-102.0169275 140.10335188 -101.10408786 137.70801361 -98.9453125 134.671875 C-96.4736846 131.11105515 -94.08331727 127.51784952 -91.7578125 123.859375 C-91.17386719 122.94285156 -90.58992188 122.02632813 -89.98828125 121.08203125 C-88.5742683 118.88111154 -88.5742683 118.88111154 -87.5703125 116.796875 C-88.40433594 117.19519531 -89.23835938 117.59351563 -90.09765625 118.00390625 C-116.98056891 130.66012286 -116.98056891 130.66012286 -125.5703125 127.796875 C-121.42610534 126.00022242 -117.28181525 124.2037613 -113.13745117 122.4074707 C-111.73020229 121.79749615 -110.32297533 121.18747103 -108.91577148 120.57739258 C-106.88270866 119.6959903 -104.84956476 118.81477529 -102.81640625 117.93359375 C-102.19632187 117.66471848 -101.57623749 117.3958432 -100.93736267 117.11882019 C-96.81944339 115.33437123 -92.69631732 113.56251812 -88.5703125 111.796875 C-102.53059586 108.92063571 -116.5517849 106.3708337 -130.5703125 103.796875 C-130.5703125 103.466875 -130.5703125 103.136875 -130.5703125 102.796875 C-104.34970101 102.41737383 -104.34970101 102.41737383 -93.3828125 103.609375 C-92.69719238 103.67946777 -92.01157227 103.74956055 -91.30517578 103.82177734 C-86.3568674 104.43770343 -82.15727099 105.93453924 -77.5703125 107.796875 C-77.69148438 106.81332031 -77.81265625 105.82976562 -77.9375 104.81640625 C-78.40331827 100.99051054 -78.84484008 97.1620936 -79.27929688 93.33251953 C-79.46814582 91.68706217 -79.6618683 90.04215408 -79.86132812 88.39794922 C-81.22803828 77.03891427 -81.81888009 65.73829803 -81.9453125 54.296875 C-81.97125488 53.0377832 -81.99719727 51.77869141 -82.02392578 50.48144531 C-82.02755127 48.70398926 -82.02755127 48.70398926 -82.03125 46.890625 C-82.03946777 45.83552734 -82.04768555 44.78042969 -82.05615234 43.69335938 C-81.44944818 40.07630499 -80.08565847 38.41475662 -77.5703125 35.796875 C-73.20011669 33.61177709 -68.46799409 34.5133966 -64.0078125 35.921875 C-51.41558792 42.79036114 -46.66539467 55.09696776 -42.50390625 68.25 C-41.31620529 72.76226975 -40.69091859 77.13709423 -40.5703125 81.796875 C-39.9103125 81.796875 -39.2503125 81.796875 -38.5703125 81.796875 C-38.60511719 80.99507813 -38.63992187 80.19328125 -38.67578125 79.3671875 C-39.2786349 54.04733404 -31.98430303 25.73719139 -14.5703125 6.796875 C-14.00570312 6.15492187 -13.44109375 5.51296875 -12.859375 4.8515625 C-8.89620623 0.85118088 -5.55936668 0.10656933 0 0 Z " fill="#040404" transform="translate(133.5703125,96.203125)"/>
<path d="M0 0 C0.66 0.99 1.32 1.98 2 3 C4.17058915 3.4757025 4.17058915 3.4757025 6.69140625 3.44140625 C7.63693359 3.46783203 8.58246094 3.49425781 9.55664062 3.52148438 C10.54857422 3.53501953 11.54050781 3.54855469 12.5625 3.5625 C33.36895409 3.93776671 49.23254438 11.30423106 64 26 C75.68906931 38.46974723 83.05378675 55.01203868 83.375 72.1875 C83.29101371 74.46021981 83.16790607 76.7319355 83 79 C82.89365234 80.47533203 82.89365234 80.47533203 82.78515625 81.98046875 C80.73422141 99.05622963 70.73813638 115.19211277 57.68359375 126.15234375 C44.50451074 135.22615199 31.06657403 139.5638612 15 138 C1.66271826 135.37652998 -8.40362003 127.16619742 -18 118 C-18.90492188 117.20722656 -18.90492188 117.20722656 -19.828125 116.3984375 C-30.46212958 106.70857351 -36.8791678 93.19259489 -42 80 C-42.26361328 79.32114746 -42.52722656 78.64229492 -42.79882812 77.94287109 C-44.24076323 74.16624723 -45.55539831 70.40228311 -46.625 66.5 C-46.86476563 65.6440625 -47.10453125 64.788125 -47.3515625 63.90625 C-51.39796829 45.77055177 -50.25835826 27.09381119 -40.6875 10.9375 C-30.64885998 -3.54340155 -16.09157604 -8.48568119 0 0 Z " fill="#040404" transform="translate(309,209)"/>
<path d="M0 0 C0.88284668 0.00273926 1.76569336 0.00547852 2.67529297 0.00830078 C10.6231801 0.13087943 18.28065346 1.20450087 26.10546875 2.51953125 C30.86788167 3.31878426 35.63555963 3.87590471 40.4375 4.375 C42.61687782 4.61233216 44.79599324 4.85196943 46.97509766 5.09179688 C48.89298831 5.30083632 50.8117102 5.50220787 52.73046875 5.703125 C59.29276321 6.51869209 65.06053701 7.61936194 70 12.3125 C72.27195536 16.04179514 72.38191069 18.9587181 72 23.3125 C70.32375739 27.00023373 68.42746406 29.17033496 65 31.3125 C49.42085425 36.50554858 25.64123892 31.87887382 11 25.3125 C10.34 24.9825 9.68 24.6525 9 24.3125 C9.144375 25.00988281 9.28875 25.70726562 9.4375 26.42578125 C11.70150662 39.3023189 11.18324345 52.28530036 11 65.3125 C12.07258057 65.19132812 13.14516113 65.07015625 14.25024414 64.9453125 C18.30305551 64.48970675 22.35701738 64.045113 26.41137695 63.60351562 C28.15225903 63.41241779 29.892834 63.21849695 31.63305664 63.02148438 C40.21024191 62.05225502 48.80078698 61.12783947 57.43359375 60.875 C59.1650061 60.81505859 59.1650061 60.81505859 60.93139648 60.75390625 C64.97273576 61.48957211 66.42147939 63.20013933 69 66.3125 C70.60632723 69.52515446 70.47931944 72.82771812 70 76.3125 C67.98497111 80.06462276 66.54533858 81.94894095 63 84.3125 C61.10531616 84.56646729 61.10531616 84.56646729 58.94677734 84.57128906 C58.13518158 84.57759338 57.32358582 84.58389771 56.48739624 84.59039307 C55.61241486 84.5863446 54.73743347 84.58229614 53.8359375 84.578125 C52.92929352 84.58003845 52.02264954 84.5819519 51.08853149 84.58392334 C49.16692834 84.58528499 47.24531598 84.58158993 45.32373047 84.57324219 C42.40701104 84.56261662 39.49091804 84.57309948 36.57421875 84.5859375 C34.70312366 84.58461445 32.83202895 84.58204905 30.9609375 84.578125 C30.0981015 84.58217346 29.2352655 84.58622192 28.34628296 84.59039307 C22.66437849 84.54726221 17.49209181 83.76533572 12 82.3125 C12.14182335 85.7710136 12.28878303 89.22927561 12.4375 92.6875 C12.47681641 93.65300781 12.51613281 94.61851562 12.55664062 95.61328125 C13.17817404 109.86073942 14.16879496 122.58857829 24.64453125 133.3984375 C31.46444313 138.94032278 39.18139088 141.10125261 47.87890625 140.66015625 C58.38496678 139.48989419 67.091357 136.70537802 76.4296875 131.93359375 C83.28267705 128.82200659 91.16859319 126.50072245 98.5 129.25 C100.99948473 132.68679151 100.55502135 136.22360852 100 140.3125 C97.85188183 147.15962667 92.33693912 150.35880039 86.41796875 153.82421875 C81.77361171 155.8465045 77.06324304 156.86655573 72.125 157.9375 C71.16980469 158.1540625 70.21460938 158.370625 69.23046875 158.59375 C51.49405693 162.53517485 32.28562618 163.85296011 16 154.3125 C3.16878657 144.78206973 -2.77992974 132.50018157 -5.40185547 116.95556641 C-6.51058937 109.27970048 -6.43938145 101.52915305 -6.48190308 93.78869629 C-6.57182979 79.62061312 -6.91553482 65.67765398 -8.83935547 51.62768555 C-10.23933344 41.26836265 -10.80141205 30.88474087 -11.35327148 20.45214844 C-11.46070679 18.49390137 -11.46070679 18.49390137 -11.5703125 16.49609375 C-11.62977051 15.32618896 -11.68922852 14.15628418 -11.75048828 12.95092773 C-11.70986196 10.39017368 -11.70986196 10.39017368 -13 9.3125 C-13.04092937 6.97952567 -13.04241723 4.64544775 -13 2.3125 C-8.61525102 -0.15146898 -4.93233058 -0.03111583 0 0 Z " fill="#040404" transform="translate(189,203.6875)"/>
<path d="M0 0 C0.2475 1.11375 0.2475 1.11375 0.5 2.25 C2.91312505 6.67406259 7.35135238 8.19321005 12.06787109 9.62988281 C14.18341022 10.14002709 16.30184142 10.58226727 18.4375 11 C20.01707906 11.33261243 21.59650241 11.66596502 23.17578125 12 C23.97322754 12.165 24.77067383 12.33 25.59228516 12.5 C53.35552157 18.26547436 53.35552157 18.26547436 61.6640625 29.1875 C68.30676948 39.39698068 70.39216451 50.95242251 69 63 C66.17620948 74.34745448 59.84171451 85.27219033 49.97265625 91.8515625 C49.32167969 92.23054688 48.67070312 92.60953125 48 93 C47.13181641 93.50660156 47.13181641 93.50660156 46.24609375 94.0234375 C39.22748528 97.32809548 30.01835758 97.22798309 22.60546875 95.4140625 C6.99232631 88.48195445 -2.79361657 70.95188459 -8.85302734 55.87792969 C-13.88341511 42.80995178 -20.17467586 26.06596065 -14.9375 12.18359375 C-12.02062373 7.49915387 -5.98746612 0 0 0 Z " fill="#FCFCFC" transform="translate(300,225)"/>
<path d="M0 0 C26.22061149 -0.37950117 26.22061149 -0.37950117 37.1875 0.8125 C38.21593018 0.91763916 38.21593018 0.91763916 39.26513672 1.02490234 C42.8161153 1.46689993 45.98209209 2.28978411 49.30078125 3.57421875 C52.80579968 5.17981963 52.80579968 5.17981963 56 5 C57 8 57 8 57 10 C57.37125 10.556875 57.7425 11.11375 58.125 11.6875 C59.44024818 15.16351305 58.18003458 17.59101123 57 21 C54.90649311 17.5980513 54.82057837 14.94727588 55 11 C49.79777556 15.57045525 46.53855347 21.20076397 42.9375 27.0625 C41.72239408 29.03560666 40.50250424 31.00577698 39.27734375 32.97265625 C38.74359131 33.84156494 38.20983887 34.71047363 37.65991211 35.60571289 C35.96020738 38.05739759 34.25887936 40.05107912 32 42 C29.75 41.75 29.75 41.75 28 41 C28.553385 37.30647688 29.46622464 34.91113861 31.625 31.875 C34.0966279 28.31418015 36.48699523 24.72097452 38.8125 21.0625 C39.39644531 20.14597656 39.98039062 19.22945312 40.58203125 18.28515625 C41.9960442 16.08423654 41.9960442 16.08423654 43 14 C42.16597656 14.39832031 41.33195312 14.79664063 40.47265625 15.20703125 C13.58974359 27.86324786 13.58974359 27.86324786 5 25 C9.14420716 23.20334742 13.28849725 21.4068863 17.43286133 19.6105957 C18.84011021 19.00062115 20.24733717 18.39059603 21.65454102 17.78051758 C23.68760384 16.8991153 25.72074774 16.01790029 27.75390625 15.13671875 C28.37399063 14.86784348 28.99407501 14.5989682 29.63294983 14.32194519 C33.75086911 12.53749623 37.87399518 10.76564312 42 9 C28.03971664 6.12376071 14.0185276 3.5739587 0 1 C0 0.67 0 0.34 0 0 Z M56 13 C57 15 57 15 57 15 Z M57 9 C59 10 59 10 59 10 Z " fill="#0E0E0E" transform="translate(3,199)"/>
<path d="M0 0 C0.66 0.33 1.32 0.66 2 1 C-4.82626992 9.15822503 -12.43799837 16.53279684 -20 24 C-14.75597946 21.45646259 -9.71195275 18.8559633 -4.8125 15.6875 C-0.55740638 13.05915623 2.06027679 12.35568828 7 13 C7 13.66 7 14.32 7 15 C5.53808594 16.14160156 5.53808594 16.14160156 3.484375 17.390625 C2.73269043 17.85041748 1.98100586 18.31020996 1.20654297 18.78393555 C-0.0094458 19.50963745 -0.0094458 19.50963745 -1.25 20.25 C-2.47178955 20.98827026 -2.47178955 20.98827026 -3.71826172 21.74145508 C-9.99630682 25.49553547 -16.36341981 28.91594215 -23 32 C-23.66 31.34 -24.32 30.68 -25 30 C-24.01 30 -23.02 30 -22 30 C-22.33 29.01 -22.66 28.02 -23 27 C-23.721875 27.495 -24.44375 27.99 -25.1875 28.5 C-28.14848659 30.07919285 -29.71253029 30.28178312 -33 30 C-28.42643668 24.11970431 -23.03495701 19.51925114 -17.33203125 14.7890625 C-13.49041375 11.59858535 -9.80056961 8.25043823 -6.12109375 4.875 C-4.14947573 3.13213324 -2.12884095 1.54473719 0 0 Z " fill="#0E0E0E" transform="translate(193,138)"/>
<path d="M0 0 C26.23973744 -0.37977799 26.23973744 -0.37977799 37.4375 0.875 C38.15663574 0.95347168 38.87577148 1.03194336 39.61669922 1.11279297 C43.10025398 1.55492014 45.98268624 2.16337424 49 4 C48.34 4.66 47.68 5.32 47 6 C46.30251417 7.31747324 45.63040043 8.64914193 45 10 C44.41114014 9.82041748 43.82228027 9.64083496 43.21557617 9.45581055 C34.36124784 6.88920654 25.38570784 5.36033282 16.3125 3.8125 C14.72452561 3.53759278 13.13663424 3.26220556 11.54882812 2.98632812 C7.70015213 2.31868888 3.85041576 1.65752812 0 1 C0 0.67 0 0.34 0 0 Z " fill="#1E1E1E" transform="translate(3,199)"/>
<path d="M0 0 C0 0.66 0 1.32 0 2 C0.99 1.67 1.98 1.34 3 1 C2.67 1.99 2.34 2.98 2 4 C0.02604477 4.74023321 -1.98271862 5.38761101 -4 6 C-5.4449654 6.62895305 -6.88207376 7.27614706 -8.3125 7.9375 C-29.98214918 17.67261694 -29.98214918 17.67261694 -38 15 C-33.83883209 13.18192498 -29.67619791 11.36726425 -25.51220703 9.55566406 C-24.09774266 8.93972413 -22.68367363 8.32287546 -21.27001953 7.70507812 C-19.23054203 6.8139745 -17.18963517 5.92621753 -15.1484375 5.0390625 C-14.210569 4.62800766 -14.210569 4.62800766 -13.25375366 4.20864868 C-3.54317957 0 -3.54317957 0 0 0 Z " fill="#1A1A1A" transform="translate(46,209)"/>
<path d="M0 0 C5.10512744 0.63814093 8.44459631 3.40946525 12.5 6.4375 C11.125 8.4375 11.125 8.4375 9.5 10.4375 C8.16666667 10.4375 6.83333333 10.4375 5.5 10.4375 C5.83 11.7575 6.16 13.0775 6.5 14.4375 C5.51 14.9325 5.51 14.9325 4.5 15.4375 C4.17386719 14.95539063 3.84773438 14.47328125 3.51171875 13.9765625 C2.85623047 13.02910156 2.85623047 13.02910156 2.1875 12.0625 C1.75824219 11.43601563 1.32898438 10.80953125 0.88671875 10.1640625 C-0.56920339 8.17371155 -0.56920339 8.17371155 -3.5 6.4375 C-3.75 3.875 -3.75 3.875 -3.5 1.4375 C-2.5 0.4375 -2.5 0.4375 0 0 Z " fill="#0E0E0E" transform="translate(383.5,208.5625)"/>
<path d="M0 0 C0.66 0.33 1.32 0.66 2 1 C-2.4539312 6.39160093 -7.23478936 11.5061685 -12.0625 16.5625 C-12.6517627 17.20654785 -13.24102539 17.8505957 -13.84814453 18.51416016 C-15.5024206 20.21829998 -17.0077062 21.70566911 -19 23 C-22.43359375 22.90234375 -22.43359375 22.90234375 -25 22 C-17.26038187 14.0185188 -8.55082897 7.08293666 0 0 Z " fill="#1F1F1F" transform="translate(193,138)"/>
<path d="M0 0 C0.33 0 0.66 0 1 0 C1.12117188 0.76183594 1.24234375 1.52367187 1.3671875 2.30859375 C2.38749792 8.59527564 3.55279729 14.79770268 5 21 C4.01 21.33 3.02 21.66 2 22 C1.67 21.34 1.34 20.68 1 20 C-0.32 21.32 -1.64 22.64 -3 24 C-3.66 23.67 -4.32 23.34 -5 23 C-4.505 22.34 -4.01 21.68 -3.5 21 C-1.5859185 17.171837 -1.48295188 14.20419459 -2 10 C-2.88214887 7.11785113 -2.88214887 7.11785113 -4 5 C-2.68 4.34 -1.36 3.68 0 3 C0 2.01 0 1.02 0 0 Z M-1 23 C-0.34 23 0.32 23 1 23 C0.67 23.99 0.34 24.98 0 26 C-0.66 25.34 -1.32 24.68 -2 24 C-1.67 23.67 -1.34 23.34 -1 23 Z " fill="#EEEEEE" transform="translate(260,262)"/>
<path d="M0 0 C0.66 1.32 1.32 2.64 2 4 C1.34 4 0.68 4 0 4 C0.99 4.99 1.98 5.98 3 7 C0.58706946 8.48557291 -1.8299747 9.96356592 -4.25 11.4375 C-4.93191406 11.85837891 -5.61382812 12.27925781 -6.31640625 12.71289062 C-6.98027344 13.11572266 -7.64414063 13.51855469 -8.328125 13.93359375 C-8.9355957 14.30540771 -9.54306641 14.67722168 -10.16894531 15.06030273 C-12.09515872 16.04883545 -13.88694504 16.55740065 -16 17 C-11.01595832 10.96668638 -5.58084697 5.4815829 0 0 Z " fill="#EBEBEB" transform="translate(188,146)"/>
<path d="M0 0 C0 0.66 0 1.32 0 2 C-2.30595384 3.62946228 -4.60196707 5.1435897 -7 6.625 C-8.00160156 7.25535156 -8.00160156 7.25535156 -9.0234375 7.8984375 C-10.67831454 8.93864592 -12.33866288 9.97014051 -14 11 C-14.33 10.34 -14.66 9.68 -15 9 C-15.99 9 -16.98 9 -18 9 C-18.66 9.66 -19.32 10.32 -20 11 C-19.8515625 9.234375 -19.8515625 9.234375 -19 7 C-13.28533676 2.56527711 -7.35877446 -1.17071412 0 0 Z " fill="#131313" transform="translate(200,151)"/>
<path d="M0 0 C3.20967071 0.44926387 6.41742351 0.91103901 9.625 1.375 C10.52863281 1.50132812 11.43226563 1.62765625 12.36328125 1.7578125 C17.10550344 2.45010771 21.49709181 3.27961979 26 5 C26 5.33 26 5.66 26 6 C16.62122392 6.1598655 7.34809779 5.66433182 -2 5 C-2 4.67 -2 4.34 -2 4 C-0.35 3.67 1.3 3.34 3 3 C2.01 2.67 1.02 2.34 0 2 C0 1.34 0 0.68 0 0 Z " fill="#2B2B2B" transform="translate(164,172)"/>
<path d="M0 0 C2.6700173 2.6700173 3.13111821 5.13465728 4.1875 8.75 C4.55230469 9.96171875 4.91710937 11.1734375 5.29296875 12.421875 C6.00789138 16.03993647 5.85616554 18.44445902 5 22 C4.34 22 3.68 22 3 22 C2.67 22.99 2.34 23.98 2 25 C0.7472283 16.61090382 -0.36011137 8.50262969 0 0 Z " fill="#E4E4E4" transform="translate(71,166)"/>
<path d="M0 0 C0.78375 0.04125 1.5675 0.0825 2.375 0.125 C2.375 1.115 2.375 2.105 2.375 3.125 C-1.22808771 5.3220047 -2.88443314 6.25724408 -7.125 5.5 C-10.45889529 4.79321956 -10.45889529 4.79321956 -12.40234375 6.16015625 C-13.87731874 7.4060763 -15.25974032 8.75974032 -16.625 10.125 C-16.625 7.125 -16.625 7.125 -14.5625 4.4375 C-10.94068078 1.58628061 -9.11389359 1.87091168 -4.625 2.125 C-2.625 0.125 -2.625 0.125 0 0 Z " fill="#0D0D0D" transform="translate(47.625,464.875)"/>
<path d="M0 0 C0.8353125 0.556875 0.8353125 0.556875 1.6875 1.125 C4.79044999 2.29908918 6.06094256 1.31599587 9 0 C8.29465117 1.82190102 7.55982907 3.63241287 6.8125 5.4375 C6.40644531 6.44683594 6.00039063 7.45617187 5.58203125 8.49609375 C4 11 4 11 1.32421875 11.84765625 C0.55722656 11.89792969 -0.20976562 11.94820312 -1 12 C-1.02687279 10.18757948 -1.04633715 8.37504767 -1.0625 6.5625 C-1.07410156 5.55316406 -1.08570313 4.54382813 -1.09765625 3.50390625 C-1 1 -1 1 0 0 Z " fill="#EFEFEF" transform="translate(261,218)"/>
<path d="M0 0 C1.32 0.33 2.64 0.66 4 1 C3 4 3 4 1.5625 5.375 C-0.18611252 6.97496229 -0.18611252 6.97496229 -0.9375 9.5625 C-2 12 -2 12 -3.9375 13.375 C-6 14 -6 14 -9 13 C-8.51789063 12.39671875 -8.03578125 11.7934375 -7.5390625 11.171875 C-6.90742188 10.37265625 -6.27578125 9.5734375 -5.625 8.75 C-4.99851562 7.96109375 -4.37203125 7.1721875 -3.7265625 6.359375 C-2.21089263 4.28818811 -1.05780366 2.32930503 0 0 Z " fill="#EEEEEE" transform="translate(384,312)"/>
<path d="M0 0 C1.32 0.66 2.64 1.32 4 2 C3.67 2.99 3.34 3.98 3 5 C4.65 5.33 6.3 5.66 8 6 C8.144375 6.763125 8.28875 7.52625 8.4375 8.3125 C8.9632594 11.08172908 8.9632594 11.08172908 10 14 C9.01 14 8.02 14 7 14 C5.2109375 12.1015625 5.2109375 12.1015625 3.375 9.625 C2.76398438 8.81289062 2.15296875 8.00078125 1.5234375 7.1640625 C0 5 0 5 -1 3 C-0.67 2.01 -0.34 1.02 0 0 Z " fill="#EBEBEB" transform="translate(470,87)"/>
<path d="M0 0 C1.65 0.33 3.3 0.66 5 1 C5 5.95 5 10.9 5 16 C2.95349609 12.93024413 2.00295435 10.30915848 0.875 6.8125 C0.52179688 5.72582031 0.16859375 4.63914062 -0.1953125 3.51953125 C-0.46085937 2.68808594 -0.72640625 1.85664063 -1 1 C-0.67 0.67 -0.34 0.34 0 0 Z " fill="#F4F4F4" transform="translate(489,312)"/>
<path d="M0 0 C0.33 0 0.66 0 1 0 C1.08724706 3.4165052 1.14047325 6.83272313 1.1875 10.25 C1.21263672 11.21808594 1.23777344 12.18617188 1.26367188 13.18359375 C1.27333984 14.11816406 1.28300781 15.05273438 1.29296875 16.015625 C1.3086792 16.87446289 1.32438965 17.73330078 1.34057617 18.61816406 C0.93095949 21.48283816 -0.113864 22.85063164 -2 25 C-2.99 24.34 -3.98 23.68 -5 23 C-4.34 21.35 -3.68 19.7 -3 18 C-2.34 18 -1.68 18 -1 18 C-0.505 9.09 -0.505 9.09 0 0 Z " fill="#3B3B3B" transform="translate(112,198)"/>
<path d="M0 0 C2.52588702 2.36292656 3.88820837 3.66462511 5 7 C7.01508358 7.73323796 7.01508358 7.73323796 9 8 C8.67 9.32 8.34 10.64 8 12 C3.25091453 9.19372222 0.80627778 6.74908547 -2 2 C-1.34 1.34 -0.68 0.68 0 0 Z " fill="#1A1A1A" transform="translate(148,491)"/>
<path d="M0 0 C0.88945312 0.00644531 1.77890625 0.01289063 2.6953125 0.01953125 C3.61570313 0.03628906 4.53609375 0.05304688 5.484375 0.0703125 C6.42023438 0.07933594 7.35609375 0.08835938 8.3203125 0.09765625 C10.62526157 0.12117614 12.9296866 0.15404397 15.234375 0.1953125 C15.234375 0.5253125 15.234375 0.8553125 15.234375 1.1953125 C8.964375 1.1953125 2.694375 1.1953125 -3.765625 1.1953125 C-4.095625 2.5153125 -4.425625 3.8353125 -4.765625 5.1953125 C-5.755625 5.1953125 -6.745625 5.1953125 -7.765625 5.1953125 C-8.095625 6.5153125 -8.425625 7.8353125 -8.765625 9.1953125 C-8.765625 6.8853125 -8.765625 4.5753125 -8.765625 2.1953125 C-5.70405846 0.41862027 -3.52526285 -0.04519568 0 0 Z " fill="#303030" transform="translate(184.765625,203.8046875)"/>
<path d="M0 0 C0.33 1.32 0.66 2.64 1 4 C0.01 4.33 -0.98 4.66 -2 5 C-2.66 5.66 -3.32 6.32 -4 7 C-5.32 7 -6.64 7 -8 7 C-10.20067421 7.93283296 -10.20067421 7.93283296 -12 9 C-3.25 0 -3.25 0 0 0 Z " fill="#DFDFDF" transform="translate(300,225)"/>
<path d="M0 0 C3.29714793 0.32971479 4.6226839 0.6226839 7 3 C4.32521756 4.6627026 2.0004856 5.99983813 -1 7 C-1.625 4.625 -1.625 4.625 -2 2 C-1.34 1.34 -0.68 0.68 0 0 Z " fill="#F2F2F2" transform="translate(51,129)"/>
<path d="M0 0 C4.875 4.625 4.875 4.625 6 8 C5.34 8 4.68 8 4 8 C3.67 8.66 3.34 9.32 3 10 C2.34 9.34 1.68 8.68 1 8 C0.01 8 -0.98 8 -2 8 C-1.34 5.36 -0.68 2.72 0 0 Z " fill="#F0F0F0" transform="translate(146,494)"/>
<path d="M0 0 C0.33 0.99 0.66 1.98 1 3 C3.01508358 3.73323796 3.01508358 3.73323796 5 4 C5.33 5.32 5.66 6.64 6 8 C3.69 7.67 1.38 7.34 -1 7 C-1.625 4.625 -1.625 4.625 -2 2 C-1.34 1.34 -0.68 0.68 0 0 Z " fill="#161616" transform="translate(427,480)"/>
<path d="M0 0 C0 3.43801737 -0.37648923 4.96474074 -2 8 C-4.20931184 10.16339081 -6.56080866 12.10212652 -9 14 C-7.65070536 10.16336928 -5.92248975 7.34827431 -3.375 4.1875 C-2.42753906 3.00220703 -2.42753906 3.00220703 -1.4609375 1.79296875 C-0.97882813 1.20128906 -0.49671875 0.60960938 0 0 Z " fill="#151515" transform="translate(119,103)"/>
<path d="M0 0 C0.99 0.66 1.98 1.32 3 2 C2.4375 4.375 2.4375 4.375 1 7 C-2.625 8.3125 -2.625 8.3125 -6 9 C-4.02 6.03 -2.04 3.06 0 0 Z " fill="#E8E8E8" transform="translate(453,474)"/>
<path d="M0 0 C0.33 0.99 0.66 1.98 1 3 C1.66 3.66 2.32 4.32 3 5 C-0.51187196 7.40814077 -2.72656908 8.36629408 -7 8 C-6.02133662 6.85373678 -5.04205413 5.70800212 -4.0625 4.5625 C-3.51722656 3.92441406 -2.97195312 3.28632813 -2.41015625 2.62890625 C-1.63204305 1.73008851 -0.84063472 0.84063472 0 0 Z " fill="#141414" transform="translate(167,160)"/>
<path d="M0 0 C0.33 0.99 0.66 1.98 1 3 C-0.45264038 3.8638129 -1.9123163 4.71580454 -3.375 5.5625 C-4.59316406 6.27599609 -4.59316406 6.27599609 -5.8359375 7.00390625 C-6.55007812 7.33261719 -7.26421875 7.66132813 -8 8 C-8.66 7.67 -9.32 7.34 -10 7 C-8.90536178 5.82438854 -7.79892814 4.6597511 -6.6875 3.5 C-6.07261719 2.8503125 -5.45773438 2.200625 -4.82421875 1.53125 C-3 0 -3 0 0 0 Z " fill="#E6E6E6" transform="translate(182,155)"/>
<path d="M0 0 C0.33 1.65 0.66 3.3 1 5 C0.34 5 -0.32 5 -1 5 C-1.66 5.66 -2.32 6.32 -3 7 C-3 6.34 -3 5.68 -3 5 C-4.32 5.33 -5.64 5.66 -7 6 C-6.75 4.125 -6.75 4.125 -6 2 C-3.85331506 0.61504198 -2.56128588 0 0 0 Z " fill="#EAEAEA" transform="translate(498,488)"/>
<path d="M0 0 C1.85776765 3.13498292 2.20140476 5.37471432 2 9 C0.02 8.34 -1.96 7.68 -4 7 C-3.39816251 4.97954558 -2.72693904 2.97888961 -2 1 C-1.34 0.67 -0.68 0.34 0 0 Z " fill="#E9E9E9" transform="translate(190,487)"/>
<path d="M0 0 C1.32 0.66 2.64 1.32 4 2 C4 2.99 4 3.98 4 5 C4.62599617 6.68236471 5.28752268 8.3523962 6 10 C5.01 10.495 5.01 10.495 4 11 C2.02 8.03 0.04 5.06 -2 2 C-1.34 1.34 -0.68 0.68 0 0 Z " fill="#0F0F0F" transform="translate(359,247)"/>
<path d="M0 0 C0.66 0 1.32 0 2 0 C2 0.66 2 1.32 2 2 C2.99 2.33 3.98 2.66 5 3 C4.67 4.98 4.34 6.96 4 9 C1.5 6.6875 1.5 6.6875 -1 4 C-1 1 -1 1 0 0 Z " fill="#ECECEC" transform="translate(402,216)"/>
<path d="M0 0 C0.763125 0.20625 1.52625 0.4125 2.3125 0.625 C1 3.125 1 3.125 -0.6875 5.625 C-1.6775 5.625 -2.6675 5.625 -3.6875 5.625 C-3.6875 4.965 -3.6875 4.305 -3.6875 3.625 C-4.3475 3.625 -5.0075 3.625 -5.6875 3.625 C-5.6875 2.965 -5.6875 2.305 -5.6875 1.625 C-2.6875 -0.375 -2.6875 -0.375 0 0 Z " fill="#151515" transform="translate(285.6875,345.375)"/>
<path d="M0 0 C0.33 0.66 0.66 1.32 1 2 C1.66 2 2.32 2 3 2 C3 6.62 3 11.24 3 16 C0.14206684 13.14206684 0.59200059 10.85334416 0.375 6.875 C0.30023438 5.59367187 0.22546875 4.31234375 0.1484375 2.9921875 C0.09945313 2.00476563 0.05046875 1.01734375 0 0 Z " fill="#C7C7C7" transform="translate(438,336)"/>
<path d="M0 0 C3.26460973 1.80412643 4.88929795 2.83394693 7 6 C4.50935112 6.68707555 2.62113708 7 0 7 C0 4.66666667 0 2.33333333 0 0 Z " fill="#EFEFEF" transform="translate(282,319)"/>
<path d="M0 0 C2.40072955 2.88087546 4.47291037 5.56404834 6 9 C2.75791433 8.64950425 1.38472296 8.43778819 -0.8125 5.9375 C-1.204375 5.298125 -1.59625 4.65875 -2 4 C-1.34 2.68 -0.68 1.36 0 0 Z " fill="#EBEBEB" transform="translate(275,306)"/>
<path d="M0 0 C1.98 0.66 3.96 1.32 6 2 C5.67 3.32 5.34 4.64 5 6 C0.545 5.01 0.545 5.01 -4 4 C-2.68 3.34 -1.36 2.68 0 2 C0 1.34 0 0.68 0 0 Z " fill="#1B1B1B" transform="translate(398,72)"/>
<path d="M0 0 C0.53109375 0.37898437 1.0621875 0.75796875 1.609375 1.1484375 C1.609375 1.4784375 1.609375 1.8084375 1.609375 2.1484375 C-0.49233156 2.67911091 -2.59710098 3.19766607 -4.703125 3.7109375 C-5.87488281 4.00097656 -7.04664063 4.29101562 -8.25390625 4.58984375 C-11.390625 5.1484375 -11.390625 5.1484375 -14.390625 4.1484375 C-12.48272468 3.25448421 -10.56388694 2.38384416 -8.640625 1.5234375 C-7.57328125 1.03617188 -6.5059375 0.54890625 -5.40625 0.046875 C-2.390625 -0.8515625 -2.390625 -0.8515625 0 0 Z " fill="#333333" transform="translate(22.390625,219.8515625)"/>
<path d="M0 0 C0.66 0.33 1.32 0.66 2 1 C0.35 3.64 -1.3 6.28 -3 9 C-3.33 8.34 -3.66 7.68 -4 7 C-6.52733235 6.34444881 -6.52733235 6.34444881 -9 6 C-9 5.67 -9 5.34 -9 5 C-8.071875 4.731875 -7.14375 4.46375 -6.1875 4.1875 C-3.23759634 3.08851629 -1.94384814 2.37581439 0 0 Z " fill="#E2E2E2" transform="translate(510,486)"/>
<path d="M0 0 C1.32 0.66 2.64 1.32 4 2 C2.35 3.65 0.7 5.3 -1 7 C-1.99 6.01 -2.98 5.02 -4 4 C-2.68 2.68 -1.36 1.36 0 0 Z " fill="#131313" transform="translate(68,480)"/>
<path d="M0 0 C0.99 0.33 1.98 0.66 3 1 C2.34 2.32 1.68 3.64 1 5 C0.34 5 -0.32 5 -1 5 C-1.33 5.99 -1.66 6.98 -2 8 C-3.65 8.33 -5.3 8.66 -7 9 C-6.02180976 7.68677212 -5.0424189 6.37443848 -4.0625 5.0625 C-3.51722656 4.33160156 -2.97195312 3.60070312 -2.41015625 2.84765625 C-1 1 -1 1 0 0 Z " fill="#E1E1E1" transform="translate(81,471)"/>
<path d="M0 0 C0.99 0.33 1.98 0.66 3 1 C3 1.99 3 2.98 3 4 C3.66 4 4.32 4 5 4 C4.67 4.99 4.34 5.98 4 7 C2.8553125 6.9071875 2.8553125 6.9071875 1.6875 6.8125 C-1.04525312 6.74101915 -1.04525312 6.74101915 -2.8125 8.5 C-3.204375 8.995 -3.59625 9.49 -4 10 C-4 6.08087178 -2.4275386 4.95856266 0 2 C0 1.34 0 0.68 0 0 Z " fill="#E8E8E8" transform="translate(194,137)"/>
<path d="M0 0 C1.32 0 2.64 0 4 0 C4 0.66 4 1.32 4 2 C4.99 2.33 5.98 2.66 7 3 C6 4 5 5 4 6 C2.02 5.34 0.04 4.68 -2 4 C-2 2 -2 2 0 0 Z " fill="#0C0C0C" transform="translate(49,466)"/>
<path d="M0 0 C0.66 0.33 1.32 0.66 2 1 C-0.18018186 5.48148494 -2.34829356 7.21849541 -7 9 C-7.66 8.67 -8.32 8.34 -9 8 C-6.03 5.36 -3.06 2.72 0 0 Z " fill="#242424" transform="translate(280,208)"/>
<path d="M0 0 C1.670625 0.061875 1.670625 0.061875 3.375 0.125 C3.375 0.785 3.375 1.445 3.375 2.125 C1.395 3.115 -0.585 4.105 -2.625 5.125 C-3.615 4.135 -4.605 3.145 -5.625 2.125 C-3.625 0.125 -3.625 0.125 0 0 Z " fill="#262626" transform="translate(196.625,150.875)"/>
<path d="M0 0 C2.15377564 2.62198774 3.40072174 4.64404172 4 8 C-0.75 6.125 -0.75 6.125 -3 5 C-1.125 1.125 -1.125 1.125 0 0 Z " fill="#141414" transform="translate(484,306)"/>
<path d="M0 0 C2.92879371 0.62759865 5.36095629 1.58622659 8 3 C7.67 3.99 7.34 4.98 7 6 C4.66666667 6 2.33333333 6 0 6 C0 4.02 0 2.04 0 0 Z " fill="#101010" transform="translate(473,296)"/>
<path d="M0 0 C2.31 1.98 4.62 3.96 7 6 C6.34 6.66 5.68 7.32 5 8 C2.00675737 6.9024777 1.15389099 6.32317108 -0.25 3.375 C-0.4975 2.59125 -0.745 1.8075 -1 1 C-0.67 0.67 -0.34 0.34 0 0 Z " fill="#151515" transform="translate(459,80)"/>
<path d="M0 0 C2 1 2 1 2 1 Z M-1 1 C0.485 1.99 0.485 1.99 2 3 C1.34 5.97 0.68 8.94 0 12 C-1.99512373 8.00975253 -2.28727578 6.30913667 -2 2 C-1.67 1.67 -1.34 1.34 -1 1 Z M-1 4 C0 6 0 6 0 6 Z " fill="#202020" transform="translate(60,208)"/>
<path d="M0 0 C2.42130331 2.42130331 2.52840504 3.80111377 3.125 7.125 C3.29257813 8.03507813 3.46015625 8.94515625 3.6328125 9.8828125 C3.81457031 10.93082031 3.81457031 10.93082031 4 12 C2.68 11.34 1.36 10.68 0 10 C0 6.7 0 3.4 0 0 Z " fill="#CACACA" transform="translate(71,166)"/>
<path d="M0 0 C0.721875 0.103125 1.44375 0.20625 2.1875 0.3125 C1.65125 0.704375 1.115 1.09625 0.5625 1.5 C-2.30458532 3.6880388 -5.05214568 5.99129296 -7.8125 8.3125 C-7.8125 5.3125 -7.8125 5.3125 -5.625 2.625 C-2.8125 0.3125 -2.8125 0.3125 0 0 Z " fill="#272727" transform="translate(38.8125,466.6875)"/>
<path d="M0 0 C-3.1254959 2.64465038 -6.08788267 3.84414715 -10 5 C-7.56198347 0.24586777 -7.56198347 0.24586777 -5 -0.875 C-3 -1 -3 -1 0 0 Z " fill="#1E1E1E" transform="translate(280,354)"/>
<path d="M0 0 C0.66 1.32 1.32 2.64 2 4 C-2.01804691 4.84098656 -5.01803543 5.05404945 -9 4 C-7.8125 2.5 -7.8125 2.5 -6 1 C-3.375 0.875 -3.375 0.875 -1 1 C-0.67 0.67 -0.34 0.34 0 0 Z " fill="#DFDFDF" transform="translate(252,338)"/>
<path d="M0 0 C1.65 1.65 3.3 3.3 5 5 C3.02 5.99 3.02 5.99 1 7 C0.01 6.34 -0.98 5.68 -2 5 C-1.34 3.35 -0.68 1.7 0 0 Z " fill="#181818" transform="translate(398,217)"/>
<path d="M0 0 C-0.33 0.99 -0.66 1.98 -1 3 C-2.875 3.8125 -2.875 3.8125 -5 4 C-5.99 3.34 -6.98 2.68 -8 2 C-8 1.34 -8 0.68 -8 0 C-4.71023192 -1.09658936 -3.28696233 -0.79953138 0 0 Z " fill="#F3F3F3" transform="translate(368,67)"/>
<path d="M0 0 C0.33 0 0.66 0 1 0 C1.36923077 5.41538462 1.36923077 5.41538462 -0.5 8.375 C-0.995 8.91125 -1.49 9.4475 -2 10 C-2.66 8.35 -3.32 6.7 -4 5 C-2.68 4.34 -1.36 3.68 0 3 C0 2.01 0 1.02 0 0 Z " fill="#E2E2E2" transform="translate(260,262)"/>
<path d="M0 0 C1.9375 0.6875 1.9375 0.6875 4 2 C4.75 4.625 4.75 4.625 5 7 C4.01 7.495 4.01 7.495 3 8 C0.37613513 4.93882432 0 4.26826873 0 0 Z " fill="#EBEBEB" transform="translate(376,236)"/>
<path d="M0 0 C2.25 0.25 2.25 0.25 4 1 C3.34 2.32 2.68 3.64 2 5 C-0.97 4.505 -0.97 4.505 -4 4 C-2.25 1.9375 -2.25 1.9375 0 0 Z " fill="#181818" transform="translate(172,156)"/>
<path d="M0 0 C0.66 0.66 1.32 1.32 2 2 C-1.303314 2.88935377 -4.62294375 3.46274105 -8 4 C-8.66 3.01 -9.32 2.02 -10 1 C-6.61401171 -0.04184255 -3.53318313 -0.23042499 0 0 Z " fill="#1C1C1C" transform="translate(251,211)"/>
<path d="M0 0 C0.33 0 0.66 0 1 0 C1.33 2.31 1.66 4.62 2 7 C0.35 7.33 -1.3 7.66 -3 8 C-2.45276317 4.62537285 -1.9451 2.91765 0 0 Z " fill="#222222" transform="translate(164,461)"/>
<path d="M0 0 C3 1 3 1 5 4 C3.02 4.66 1.04 5.32 -1 6 C-1.33 4.35 -1.66 2.7 -2 1 C-1.34 0.67 -0.68 0.34 0 0 Z " fill="#F1F1F1" transform="translate(31,209)"/>
<path d="M0 0 C0.99 0.33 1.98 0.66 3 1 C0.525 4.465 0.525 4.465 -2 8 C-2.66 7.34 -3.32 6.68 -4 6 C-2.68 4.02 -1.36 2.04 0 0 Z " fill="#EBEBEB" transform="translate(118,100)"/>
<path d="M0 0 C2.97 1.98 2.97 1.98 6 4 C4.02 4.99 4.02 4.99 2 6 C1.01 5.01 0.02 4.02 -1 3 C-0.67 2.01 -0.34 1.02 0 0 Z " fill="#141414" transform="translate(212,336)"/>
<path d="M0 0 C0.99 0.99 1.98 1.98 3 3 C1.02 4.32 -0.96 5.64 -3 7 C-3 4 -3 4 -2 2 C-1.34 2 -0.68 2 0 2 C0 1.34 0 0.68 0 0 Z " fill="#1D1D1D" transform="translate(366,330)"/>
<path d="M0 0 C2 2 2 2 2 5 C0.1875 6.0625 0.1875 6.0625 -2 7 C-2.99 6.67 -3.98 6.34 -5 6 C-3.35 4.02 -1.7 2.04 0 0 Z " fill="#DDDDDD" transform="translate(380,319)"/>
<path d="M0 0 C0.99 0.33 1.98 0.66 3 1 C2.67 2.32 2.34 3.64 2 5 C1.01 5 0.02 5 -1 5 C-1.33 3.68 -1.66 2.36 -2 1 C-1.34 0.67 -0.68 0.34 0 0 Z " fill="#F7F7F7" transform="translate(196,498)"/>
<path d="M0 0 C0.99 0.33 1.98 0.66 3 1 C2.01 1.33 1.02 1.66 0 2 C-0.73323796 4.01508358 -0.73323796 4.01508358 -1 6 C-2.65 6 -4.3 6 -6 6 C-4 4 -2 2 0 0 Z " fill="#EFEFEF" transform="translate(74,480)"/>
<path d="M0 0 C0 0.66 0 1.32 0 2 C-5.94 1.01 -5.94 1.01 -12 0 C-12 -0.33 -12 -0.66 -12 -1 C-7.31034294 -2.11658501 -4.46236469 -1.80619523 0 0 Z " fill="#CDCDCD" transform="translate(471,283)"/>
<path d="M0 0 C3.24208567 0.35049575 4.61527704 0.56221181 6.8125 3.0625 C7.204375 3.701875 7.59625 4.34125 8 5 C6.68 5.33 5.36 5.66 4 6 C3.71125 5.38125 3.4225 4.7625 3.125 4.125 C2.06279958 1.86674235 2.06279958 1.86674235 0 0 Z " fill="#DEDEDE" transform="translate(352,248)"/>
<path d="M0 0 C0.66 0 1.32 0 2 0 C2 1.65 2 3.3 2 5 C1.38125 5.144375 0.7625 5.28875 0.125 5.4375 C-2.03258322 5.93152225 -2.03258322 5.93152225 -4 7 C-2.79618552 4.50638429 -1.54571278 2.31856917 0 0 Z " fill="#E9E9E9" transform="translate(56,210)"/>
<path d="M0 0 C0.66 0.33 1.32 0.66 2 1 C1.67 1.99 1.34 2.98 1 4 C1.87483915 6.16715557 1.87483915 6.16715557 3 8 C2.01 8 1.02 8 0 8 C-0.38063221 5.6739143 -0.71269945 3.33944736 -1 1 C-0.67 0.67 -0.34 0.34 0 0 Z " fill="#1A1A1A" transform="translate(27,474)"/>
<path d="M0 0 C2.475 0.495 2.475 0.495 5 1 C3.515 3.475 3.515 3.475 2 6 C1.34 5.67 0.68 5.34 0 5 C0 3.35 0 1.7 0 0 Z " fill="#EDEDED" transform="translate(420,466)"/>
<path d="M0 0 C1.2077558 3.62326739 0.54311128 4.64146369 -1 8 C-0.34 8.33 0.32 8.66 1 9 C-0.32 8.67 -1.64 8.34 -3 8 C-2.45276317 4.62537285 -1.9451 2.91765 0 0 Z " fill="#1B1B1B" transform="translate(34,232)"/>
<path d="M0 0 C0 0.99 0 1.98 0 3 C-0.99 3.33 -1.98 3.66 -3 4 C-3.99 3.34 -4.98 2.68 -6 2 C-6 1.34 -6 0.68 -6 0 C-2.25 -1.125 -2.25 -1.125 0 0 Z " fill="#E8E8E8" transform="translate(108,227)"/>
<path d="M0 0 C3.93846154 3.32307692 3.93846154 3.32307692 4.25 6.75 C4.1675 7.4925 4.085 8.235 4 9 C0 4.5 0 4.5 0 0 Z " fill="#E5E5E5" transform="translate(80,138)"/>
<path d="M0 0 C0.99 0.33 1.98 0.66 3 1 C3 1.99 3 2.98 3 4 C0.5 5.6875 0.5 5.6875 -2 7 C-1.34 4.69 -0.68 2.38 0 0 Z " fill="#0E0E0E" transform="translate(483,111)"/>
<path d="M0 0 C1.32 1.32 2.64 2.64 4 4 C2.02 4.99 2.02 4.99 0 6 C-0.66 4.68 -1.32 3.36 -2 2 C-1.34 1.34 -0.68 0.68 0 0 Z " fill="#111111" transform="translate(148,491)"/>
<path d="M0 0 C0.99 0 1.98 0 3 0 C4.6875 2 4.6875 2 6 4 C4.1875 4.6875 4.1875 4.6875 2 5 C0.25 3.5625 0.25 3.5625 -1 2 C-0.67 1.34 -0.34 0.68 0 0 Z " fill="#1E1E1E" transform="translate(33,484)"/>
<path d="M0 0 C2.5 1.3125 2.5 1.3125 5 3 C5 3.99 5 4.98 5 6 C3.68 5.67 2.36 5.34 1 5 C0.67 3.35 0.34 1.7 0 0 Z " fill="#F4F4F4" transform="translate(25,481)"/>
<path d="M0 0 C0.99 1.32 1.98 2.64 3 4 C2.01 4.99 1.02 5.98 0 7 C-1 6 -1 6 -1.125 3.5 C-1 1 -1 1 0 0 Z " fill="#1F1F1F" transform="translate(419,474)"/>
<path d="M0 0 C0.99 0 1.98 0 3 0 C3.33 1.32 3.66 2.64 4 4 C1.525 3.01 1.525 3.01 -1 2 C-0.67 1.34 -0.34 0.68 0 0 Z M4 0 C4.99 0.33 5.98 0.66 7 1 C6.01 1.33 5.02 1.66 4 2 C4 1.34 4 0.68 4 0 Z " fill="#181818" transform="translate(203,354)"/>
<path d="M0 0 C2 3 2 3 2 6 C0.68 6.33 -0.64 6.66 -2 7 C-2 3.89448334 -1.4606285 2.64738916 0 0 Z " fill="#E8E8E8" transform="translate(282,352)"/>
<path d="M0 0 C1.65 0.33 3.3 0.66 5 1 C4.67 1.99 4.34 2.98 4 4 C1.03 3.505 1.03 3.505 -2 3 C-1.34 2.01 -0.68 1.02 0 0 Z " fill="#EAEAEA" transform="translate(222,339)"/>
<path d="M0 0 C0.66 0 1.32 0 2 0 C1.67 3.3 1.34 6.6 1 10 C-0.87376865 6.2524627 -1.3214079 4.96403081 -1 1 C-0.67 0.67 -0.34 0.34 0 0 Z " fill="#272727" transform="translate(262,264)"/>
<path d="M0 0 C2.625 0.75 2.625 0.75 5 2 C5.33 2.66 5.66 3.32 6 4 C1.545 3.01 1.545 3.01 -3 2 C-2.01 1.34 -1.02 0.68 0 0 Z " fill="#EDEDED" transform="translate(348,244)"/>
<path d="M0 0 C1.32 0.66 2.64 1.32 4 2 C3.34 3.32 2.68 4.64 2 6 C1.01 5.34 0.02 4.68 -1 4 C-0.67 2.68 -0.34 1.36 0 0 Z " fill="#EAEAEA" transform="translate(34,225)"/>
<path d="M0 0 C0.66 0.66 1.32 1.32 2 2 C0 5 0 5 -2.125 5.6875 C-2.74375 5.790625 -3.3625 5.89375 -4 6 C-3.6875 4.125 -3.6875 4.125 -3 2 C-2.01 1.34 -1.02 0.68 0 0 Z " fill="#E8E8E8" transform="translate(264,224)"/>
<path d="M0 0 C0.99 0 1.98 0 3 0 C3 2.31 3 4.62 3 7 C2.34 7 1.68 7 1 7 C0.67 4.69 0.34 2.38 0 0 Z " fill="#BFBFBF" transform="translate(92,171)"/>
<path d="M0 0 C0.99 0.99 1.98 1.98 3 3 C1.35 3.66 -0.3 4.32 -2 5 C-2.33 4.34 -2.66 3.68 -3 3 C-2.01 2.01 -1.02 1.02 0 0 Z " fill="#040404" transform="translate(170,159)"/>
<path d="M0 0 C0.66 0.66 1.32 1.32 2 2 C1.625 4.125 1.625 4.125 1 6 C0.34 6 -0.32 6 -1 6 C-1 5.34 -1 4.68 -1 4 C-1.66 3.67 -2.32 3.34 -3 3 C-2.01 2.01 -1.02 1.02 0 0 Z " fill="#F9F9F9" transform="translate(183,151)"/>
<path d="M0 0 C1.32 1.65 2.64 3.3 4 5 C3.34 5.66 2.68 6.32 2 7 C0.4375 5.75 0.4375 5.75 -1 4 C-0.6875 1.8125 -0.6875 1.8125 0 0 Z " fill="#151515" transform="translate(473,95)"/>
<path d="M0 0 C1.5 1.375 1.5 1.375 3 3 C3 3.66 3 4.32 3 5 C2.01 5.33 1.02 5.66 0 6 C-0.66 5.01 -1.32 4.02 -2 3 C-1.34 2.01 -0.68 1.02 0 0 Z " fill="#F3F3F3" transform="translate(460,73)"/>
</svg>
